<?xml version="1.0" encoding="UTF-8" standalone="no"?><!-- Generator: Gravit.io --><svg xmlns="http://www.w3.org/2000/svg" xmlns:xlink="http://www.w3.org/1999/xlink" style="isolation:isolate" viewBox="113 355.603 647 261.362" width="647pt" height="261.362pt"><defs><clipPath id="_clipPath_Dk5cs8cGsQNqKCtrxFNMFyUK662p9Vca"><rect x="113" y="355.603" width="647" height="261.362"/></clipPath></defs><g clip-path="url(#_clipPath_Dk5cs8cGsQNqKCtrxFNMFyUK662p9Vca)"><g><g style="opacity:0.8;"><g opacity="0.8"><linearGradient id="_lgradient_0" x1="0.4999999999999998" y1="0.9999999999999999" x2="0.49999999999999983" y2="0" gradientTransform="matrix(142.379,0,0,158.91,270.621,363)" gradientUnits="userSpaceOnUse"><stop offset="0%" stop-opacity="0.25" style="stop-color:rgb(128,128,128)"/><stop offset="54%" stop-opacity="0.12" style="stop-color:rgb(128,128,128)"/><stop offset="100%" stop-opacity="0.1" style="stop-color:rgb(128,128,128)"/></linearGradient><rect x="270.621" y="363" width="142.379" height="158.91" transform="matrix(1,0,0,1,0,0)" fill="url(#_lgradient_0)"/></g></g><rect x="272.974" y="469.098" width="137.671" height="49.351" transform="matrix(1,0,0,1,0,0)" fill="rgb(255,255,255)"/><rect x="284.274" y="480.804" width="5.335" height="25.289" transform="matrix(1,0,0,1,0,0)" fill="rgb(100,255,218)"/><g style="opacity:0.7;"><g opacity="0.7"><rect x="294.805" y="480.804" width="5.335" height="25.289" transform="matrix(1,0,0,1,0,0)" fill="rgb(100,255,218)"/></g></g><g style="opacity:0.6;"><g opacity="0.6"><rect x="305.34" y="480.804" width="5.335" height="25.289" transform="matrix(1,0,0,1,0,0)" fill="rgb(100,255,218)"/></g></g><g style="opacity:0.5;"><g opacity="0.5"><rect x="315.871" y="480.804" width="5.335" height="25.289" transform="matrix(1,0,0,1,0,0)" fill="rgb(100,255,218)"/></g></g><g style="opacity:0.5;"><g opacity="0.5"><rect x="326.402" y="480.804" width="5.335" height="25.289" transform="matrix(1,0,0,1,0,0)" fill="rgb(100,255,218)"/></g></g><g style="opacity:0.4;"><g opacity="0.4"><rect x="336.933" y="480.804" width="5.335" height="25.289" transform="matrix(1,0,0,1,0,0)" fill="rgb(100,255,218)"/></g></g><g style="opacity:0.3;"><g opacity="0.3"><rect x="347.468" y="480.804" width="5.335" height="25.289" transform="matrix(1,0,0,1,0,0)" fill="rgb(100,255,218)"/></g></g><circle vector-effect="non-scaling-stroke" cx="391.15474561844525" cy="493.2851525588148" r="12.872972610506963" fill="rgb(249,248,113)"/><rect x="272.974" y="417.824" width="137.671" height="49.351" transform="matrix(1,0,0,1,0,0)" fill="rgb(255,255,255)"/><rect x="284.274" y="429.53" width="5.335" height="25.289" transform="matrix(1,0,0,1,0,0)" fill="rgb(100,255,218)"/><g style="opacity:0.7;"><g opacity="0.7"><rect x="294.805" y="429.53" width="5.335" height="25.289" transform="matrix(1,0,0,1,0,0)" fill="rgb(100,255,218)"/></g></g><g style="opacity:0.6;"><g opacity="0.6"><rect x="305.34" y="429.53" width="5.335" height="25.289" transform="matrix(1,0,0,1,0,0)" fill="rgb(100,255,218)"/></g></g><g style="opacity:0.5;"><g opacity="0.5"><rect x="315.871" y="429.53" width="5.335" height="25.289" transform="matrix(1,0,0,1,0,0)" fill="rgb(100,255,218)"/></g></g><g style="opacity:0.5;"><g opacity="0.5"><rect x="326.402" y="429.53" width="5.335" height="25.289" transform="matrix(1,0,0,1,0,0)" fill="rgb(100,255,218)"/></g></g><g style="opacity:0.4;"><g opacity="0.4"><rect x="336.933" y="429.53" width="5.335" height="25.289" transform="matrix(1,0,0,1,0,0)" fill="rgb(100,255,218)"/></g></g><g style="opacity:0.3;"><g opacity="0.3"><rect x="347.468" y="429.53" width="5.335" height="25.289" transform="matrix(1,0,0,1,0,0)" fill="rgb(100,255,218)"/></g></g><circle vector-effect="non-scaling-stroke" cx="391.15474561844525" cy="442.01497100997113" r="12.872972610506963" fill="rgb(249,248,113)"/><rect x="272.974" y="366.551" width="137.671" height="49.351" transform="matrix(1,0,0,1,0,0)" fill="rgb(255,255,255)"/><rect x="284.274" y="378.26" width="5.335" height="25.289" transform="matrix(1,0,0,1,0,0)" fill="rgb(100,255,218)"/><g style="opacity:0.7;"><g opacity="0.7"><rect x="294.805" y="378.26" width="5.335" height="25.289" transform="matrix(1,0,0,1,0,0)" fill="rgb(100,255,218)"/></g></g><g style="opacity:0.6;"><g opacity="0.6"><rect x="305.34" y="378.26" width="5.335" height="25.289" transform="matrix(1,0,0,1,0,0)" fill="rgb(100,255,218)"/></g></g><g style="opacity:0.5;"><g opacity="0.5"><rect x="315.871" y="378.26" width="5.335" height="25.289" transform="matrix(1,0,0,1,0,0)" fill="rgb(100,255,218)"/></g></g><g style="opacity:0.5;"><g opacity="0.5"><rect x="326.402" y="378.26" width="5.335" height="25.289" transform="matrix(1,0,0,1,0,0)" fill="rgb(100,255,218)"/></g></g><g style="opacity:0.4;"><g opacity="0.4"><rect x="336.933" y="378.26" width="5.335" height="25.289" transform="matrix(1,0,0,1,0,0)" fill="rgb(100,255,218)"/></g></g><g style="opacity:0.3;"><g opacity="0.3"><rect x="347.468" y="378.26" width="5.335" height="25.289" transform="matrix(1,0,0,1,0,0)" fill="rgb(100,255,218)"/></g></g><linearGradient id="_lgradient_1" x1="0" y1="0.5" x2="6.123233995736766e-17" y2="-0.5" gradientTransform="matrix(27.755,0,0,27.755,377.277,376.864)" gradientUnits="userSpaceOnUse"><stop offset="0%" stop-opacity="0.1" style="stop-color:rgb(128,128,128)"/></linearGradient><circle vector-effect="non-scaling-stroke" cx="391.15474561844536" cy="390.74132525967144" r="13.87759103274783" fill="url(#_lgradient_1)"/><linearGradient id="_lgradient_2" x1="0" y1="0.5" x2="6.123233995736766e-17" y2="-0.5" gradientTransform="matrix(27.755,0,0,27.755,377.277,428.48)" gradientUnits="userSpaceOnUse"><stop offset="0%" stop-opacity="0.1" style="stop-color:rgb(128,128,128)"/></linearGradient><circle vector-effect="non-scaling-stroke" cx="391.15474561844536" cy="442.3579269541153" r="13.87759103274783" fill="url(#_lgradient_2)"/><linearGradient id="_lgradient_3" x1="0" y1="0.5" x2="6.123233995736766e-17" y2="-0.5" gradientTransform="matrix(27.755,0,0,27.755,377.277,479.751)" gradientUnits="userSpaceOnUse"><stop offset="0%" stop-opacity="0.1" style="stop-color:rgb(128,128,128)"/></linearGradient><circle vector-effect="non-scaling-stroke" cx="391.15474561844536" cy="493.6281085029591" r="13.87759103274783" fill="url(#_lgradient_3)"/><circle vector-effect="non-scaling-stroke" cx="391.15474561844525" cy="390.74132525967156" r="12.872972610506963" fill="rgb(249,248,113)"/><g style="opacity:0.8;"><g opacity="0.8"><linearGradient id="_lgradient_4" x1="0" y1="0.5" x2="6.123233995736766e-17" y2="-0.5" gradientTransform="matrix(190.552,0,0,127.129,124.456,476.761)" gradientUnits="userSpaceOnUse"><stop offset="0%" stop-opacity="0.1" style="stop-color:rgb(128,128,128)"/></linearGradient><path d=" M 315.008 603.89 L 124.456 603.89 L 124.456 482.234 C 124.456 480.783 125.033 479.391 126.059 478.364 C 127.086 477.338 128.478 476.761 129.93 476.761 L 309.531 476.761 C 312.554 476.761 315.005 479.211 315.005 482.234 L 315.008 603.89 Z " fill="url(#_lgradient_4)"/></g></g><path d=" M 132.556 478.999 L 306.909 478.999 C 309.932 478.999 312.382 481.449 312.382 484.472 L 312.382 603.89 L 127.082 603.89 L 127.082 484.472 C 127.082 481.449 129.533 478.999 132.556 478.999 L 132.556 478.999 Z " fill="rgb(255,255,255)"/><rect x="133.047" y="486.263" width="173.369" height="113.712" transform="matrix(1,0,0,1,0,0)" fill="rgb(245,245,245)"/><g opacity="0.8"><rect x="133.713" y="491.785" width="172.635" height="102.305" transform="matrix(1,0,0,1,0,0)" fill="rgb(193,193,193)"/></g><rect x="133.713" y="486.35" width="172.635" height="5.435" transform="matrix(1,0,0,1,0,0)" fill="rgb(245,245,245)"/><circle vector-effect="non-scaling-stroke" cx="137.41238157059746" cy="488.98261435045913" r="1.3163965532811233" fill="rgb(255,82,82)"/><circle vector-effect="non-scaling-stroke" cx="141.03593629357653" cy="488.98261435045913" r="1.3163965532811233" fill="rgb(255,255,0)"/><circle vector-effect="non-scaling-stroke" cx="144.66295521801158" cy="488.98261435045913" r="1.3163965532811233" fill="rgb(105,240,174)"/><g style="opacity:0.8;"><g opacity="0.8"><linearGradient id="_lgradient_5" x1="0" y1="0.5" x2="6.123233995736766e-17" y2="-0.5" gradientTransform="matrix(213.742,0,0,20.672,113,591.88)" gradientUnits="userSpaceOnUse"><stop offset="0%" stop-opacity="0.1" style="stop-color:rgb(128,128,128)"/></linearGradient><path d=" M 320.34 612.062 C 309.732 612.866 127.571 612.544 121.203 612.062 C 112.858 608.04 113 592.438 113 592.438 L 196.539 591.88 L 196.82 596.629 L 232.584 596.629 L 233.97 592.438 L 326.561 592.438 C 326.561 592.438 328.401 606.755 320.34 612.062 Z " fill="url(#_lgradient_5)"/></g></g><path d=" M 325.203 593.695 L 234.42 593.695 C 235.15 594.517 235.325 595.692 234.867 596.691 C 234.408 597.69 233.403 598.323 232.304 598.306 L 197.662 598.306 C 196.563 598.323 195.558 597.69 195.099 596.691 C 194.641 595.692 194.816 594.517 195.545 593.695 L 114.258 593.695 C 114.258 593.695 114.119 607.247 122.36 610.739 C 128.648 611.158 308.582 611.432 319.058 610.739 C 327.022 606.128 325.203 593.695 325.203 593.695 Z " fill="rgb(245,245,245)"/><circle vector-effect="non-scaling-stroke" cx="133.11677176515377" cy="596.6257461928386" r="1.1189370702889505" fill="rgb(224,224,224)"/><circle vector-effect="non-scaling-stroke" cx="136.47011877456464" cy="596.6257461928386" r="1.1189370702889505" fill="rgb(224,224,224)"/><circle vector-effect="non-scaling-stroke" cx="139.82346578397548" cy="596.6257461928386" r="1.1189370702889505" fill="rgb(224,224,224)"/><g style="opacity:0.7;"><g opacity="0.7"><linearGradient id="_lgradient_6" x1="0" y1="0.5" x2="6.123233995736766e-17" y2="-0.5" gradientTransform="matrix(67.247,0,0,86.647,180.722,495.807)" gradientUnits="userSpaceOnUse"><stop offset="0%" stop-opacity="0.1" style="stop-color:rgb(128,128,128)"/></linearGradient><path d=" M 214.345 495.807 L 180.722 516.499 C 180.722 516.499 180.722 559.178 214.345 582.454 C 247.969 559.174 247.969 516.499 247.969 516.499 L 214.345 495.807 Z " fill="url(#_lgradient_6)"/></g></g><path d=" M 214.345 498.249 L 182.631 517.777 C 182.631 517.777 182.631 558.052 214.363 580.018 C 246.095 558.052 246.095 517.777 246.095 517.777 L 214.345 498.249 Z " fill="rgb(249,248,113)"/><g opacity="0.05"><path d=" M 214.886 498.249 L 214.342 498.596 L 214.342 579.658 L 214.886 580.039 C 246.618 558.073 246.618 517.798 246.618 517.798 L 214.886 498.249 Z " fill="rgb(0,0,0)"/></g><path d=" M 214.345 502.968 L 186.285 520.24 C 186.285 520.24 186.285 555.866 214.345 575.3 C 242.405 555.866 242.405 520.24 242.405 520.24 L 214.345 502.968 Z " fill="rgb(249,248,113)"/><g opacity="0.08"><path d=" M 214.345 503.103 L 214.345 575.421 C 242.405 555.987 242.405 520.361 242.405 520.361 L 214.345 503.103 Z " fill="rgb(0,0,0)"/></g><mask id="_mask_ySuzdVGGxBD5TOtmM77lOGe3Q16JoVP9" x="-200%" y="-200%" width="400%" height="400%"><rect x="-200%" y="-200%" width="400%" height="400%" style="fill:white;"/><path d=" M 195.795 469.136 L 195.795 397.427 L 255.032 397.427" fill="black" stroke="none"/></mask><path d=" M 195.795 469.136 L 195.795 397.427 L 255.032 397.427" fill="none" mask="url(#_mask_ySuzdVGGxBD5TOtmM77lOGe3Q16JoVP9)" vector-effect="non-scaling-stroke" stroke-width="4" stroke-dasharray="12,12" stroke="rgb(58,210,159)" stroke-linejoin="miter" stroke-linecap="butt" stroke-miterlimit="10"/><path d=" M 195.795 469.136 L 195.795 397.427 L 255.032 397.427" fill="none"/><mask id="_mask_Vbj6geClgUKJqUH4PFfq7cSzaOuGJYS2" x="-200%" y="-200%" width="400%" height="400%"><rect x="-200%" y="-200%" width="400%" height="400%" style="fill:white;"/><path d=" M 177.434 447.312 L 177.434 375.603 L 236.672 375.603" fill="black" stroke="none"/></mask><path d=" M 177.434 447.312 L 177.434 375.603 L 236.672 375.603" fill="none" mask="url(#_mask_Vbj6geClgUKJqUH4PFfq7cSzaOuGJYS2)" vector-effect="non-scaling-stroke" stroke-width="4" stroke-dasharray="12,12" stroke="rgb(58,210,159)" stroke-linejoin="miter" stroke-linecap="butt" stroke-miterlimit="10"/><path d=" M 177.434 447.312 L 177.434 375.603 L 236.672 375.603" fill="none"/><mask id="_mask_Ule3BlYQmYHUc9ausgGaYjg6OUsW0aG3" x="-200%" y="-200%" width="400%" height="400%"><rect x="-200%" y="-200%" width="400%" height="400%" style="fill:white;"/><path d=" M 361.037 528.374 L 361.037 584.494 L 329.859 584.494" fill="black" stroke="none"/></mask><path d=" M 361.037 528.374 L 361.037 584.494 L 329.859 584.494" fill="none" mask="url(#_mask_Ule3BlYQmYHUc9ausgGaYjg6OUsW0aG3)" vector-effect="non-scaling-stroke" stroke-width="4" stroke-dasharray="12,12" stroke="rgb(58,210,159)" stroke-linejoin="miter" stroke-linecap="butt" stroke-miterlimit="10"/><path d=" M 361.037 528.374 L 361.037 584.494 L 329.859 584.494" fill="none"/><mask id="_mask_m55dGopzycW55Fcg8TGAZlewyTmpVsSv" x="-200%" y="-200%" width="400%" height="400%"><rect x="-200%" y="-200%" width="400%" height="400%" style="fill:white;"/><path d=" M 379.744 540.845 L 379.744 596.965 L 348.566 596.965" fill="black" stroke="none"/></mask><path d=" M 379.744 540.845 L 379.744 596.965 L 348.566 596.965" fill="none" mask="url(#_mask_m55dGopzycW55Fcg8TGAZlewyTmpVsSv)" vector-effect="non-scaling-stroke" stroke-width="4" stroke-dasharray="12,12" stroke="rgb(58,210,159)" stroke-linejoin="miter" stroke-linecap="butt" stroke-miterlimit="10"/><path d=" M 379.744 540.845 L 379.744 596.965 L 348.566 596.965" fill="none"/></g><g><circle vector-effect="non-scaling-stroke" cx="556.888609922179" cy="485.5884720760572" r="85.21504961089491" fill="rgb(242,242,242)"/><path d=" M 760 551.54 C 760 551.747 759.983 551.954 759.95 552.159 C 757.867 564.929 691.528 575.178 610 575.178 C 528.472 575.178 462.133 564.929 460.05 552.159 C 460.017 551.954 460 551.747 460 551.54 C 460 551.482 460 551.42 460.006 551.362 C 460.006 551.33 460.009 551.301 460.009 551.269 C 460.011 551.257 460.012 551.245 460.012 551.234 C 460.023 551.102 460.041 550.977 460.064 550.848 C 461.016 545.628 472.715 540.83 491.798 536.986 C 507.405 533.843 527.952 531.337 551.602 529.761 C 569.55 528.564 589.283 527.902 610 527.902 C 626.669 527.902 642.702 528.331 657.679 529.119 L 657.685 529.119 Q 662.386 529.368 666.947 529.664 C 687.764 531.013 706.236 533.076 721.12 535.659 C 730.274 537.249 738.075 539.038 744.23 540.976 L 744.232 540.976 C 753.705 543.961 759.291 547.308 759.936 550.848 C 759.959 550.977 759.977 551.102 759.988 551.234 C 759.988 551.245 759.989 551.257 759.991 551.269 C 759.991 551.301 759.994 551.33 759.994 551.362 C 760 551.42 760 551.482 760 551.54 Z " fill="rgb(63,61,86)"/><g opacity="0.1"><ellipse vector-effect="non-scaling-stroke" cx="606.2062256809336" cy="567.2987366674972" rx="48.15175097276267" ry="7.003891050583661" fill="rgb(0,0,0)"/></g><g opacity="0.1"><path d=" M 744.23 540.976 C 742.546 541.457 740.649 541.904 738.568 542.312 C 730 543.999 718.309 545.035 705.437 545.035 C 691.055 545.035 678.165 543.742 669.431 541.697 C 662.182 539.998 657.793 537.789 657.793 535.364 C 657.793 533.234 661.19 531.261 666.948 529.665 C 687.764 531.013 706.236 533.076 721.12 535.659 C 730.274 537.249 738.075 539.038 744.23 540.976 Z " fill="rgb(0,0,0)"/></g><g opacity="0.1"><path d=" M 615.253 537.751 C 615.253 542.166 587.553 545.747 553.385 545.747 C 519.218 545.747 491.518 542.166 491.518 537.751 C 491.525 537.472 491.623 537.204 491.798 536.986 C 507.405 533.843 527.952 531.337 551.602 529.761 Q 552.491 529.756 553.385 529.758 C 587.553 529.758 615.253 533.336 615.253 537.751 Z " fill="rgb(0,0,0)"/></g><rect x="581.538" y="498.129" width="12.165" height="39.276" transform="matrix(1,0,0,1,0,0)" fill="rgb(255,150,80)"/><rect x="541.568" y="479.707" width="12.165" height="57.697" transform="matrix(1,0,0,1,0,0)" fill="rgb(255,150,80)"/><rect x="501.945" y="479.707" width="12.165" height="57.697" transform="matrix(1,0,0,1,0,0)" fill="rgb(255,150,80)"/><rect x="521.756" y="479.707" width="12.165" height="39.276" transform="matrix(1,0,0,1,0,0)" fill="rgb(255,150,80)"/><rect x="561.379" y="479.707" width="12.165" height="11.47" transform="matrix(1,0,0,1,0,0)" fill="rgb(255,150,80)"/><rect x="561.379" y="498.129" width="12.165" height="39.276" transform="matrix(1,0,0,1,0,0)" fill="rgb(138,139,140)"/><rect x="581.538" y="479.707" width="31.977" height="11.47" transform="matrix(1,0,0,1,0,0)" fill="rgb(255,150,80)"/><path d=" M 697.859 476.257 Q 710.334 476.257 719.096 484.965 C 721.847 487.695 724.015 490.955 725.467 494.549 C 728.361 501.899 728.371 510.073 725.495 517.431 C 724.065 520.982 721.903 524.193 719.151 526.855 C 716.321 529.674 712.966 531.911 709.275 533.439 C 705.659 534.948 701.779 535.724 697.86 535.722 C 693.986 535.733 690.149 534.966 686.578 533.465 C 679.302 530.368 673.508 524.574 670.411 517.299 C 667.428 510.043 667.438 501.903 670.437 494.654 C 671.956 491.005 674.185 487.693 676.994 484.911 Q 685.488 476.259 697.859 476.257 Z  M 697.966 481.62 Q 687.773 481.62 680.816 488.735 C 678.529 491.033 676.701 493.744 675.427 496.726 C 672.913 502.628 672.913 509.299 675.427 515.202 C 677.992 521.158 682.756 525.895 688.728 528.424 C 694.655 530.875 701.313 530.866 707.233 528.398 C 710.248 527.142 712.995 525.322 715.328 523.036 Q 722.283 516.24 722.282 505.992 C 722.299 502.789 721.686 499.614 720.477 496.647 C 719.269 493.703 717.483 491.03 715.223 488.789 Q 708.051 481.621 697.966 481.62 Z  M 697.594 501.053 L 693.611 503.125 C 693.289 502.361 692.743 501.713 692.045 501.266 C 691.525 500.943 690.93 500.76 690.319 500.736 Q 686.338 500.736 686.336 505.992 Q 686.336 508.381 687.344 509.813 Q 688.353 511.248 690.319 511.248 Q 692.921 511.248 693.983 508.699 L 697.646 510.558 C 696.122 513.451 693.111 515.253 689.841 515.23 Q 685.859 515.23 683.416 512.788 Q 680.974 510.346 680.974 505.993 Q 680.974 501.745 683.443 499.25 Q 685.911 496.755 689.682 496.754 Q 695.205 496.752 697.594 501.053 Z  M 714.743 501.053 L 710.814 503.125 C 710.492 502.36 709.946 501.712 709.247 501.266 C 708.711 500.937 708.098 500.755 707.469 500.736 Q 703.487 500.736 703.485 505.992 Q 703.485 508.381 704.495 509.813 Q 705.502 511.248 707.469 511.248 Q 710.068 511.248 711.13 508.699 L 714.847 510.558 C 714.072 511.97 712.937 513.151 711.557 513.983 C 710.197 514.809 708.635 515.241 707.044 515.23 Q 703.008 515.23 700.595 512.788 Q 698.175 510.346 698.177 505.993 Q 698.177 501.745 700.647 499.25 Q 703.114 496.755 706.884 496.754 Q 712.406 496.752 714.743 501.053 Z " fill="rgb(255,150,80)"/><g opacity="0.1"><path d=" M 679.869 549.304 C 679.869 563.527 660.044 559.128 635.77 559.128 C 611.496 559.128 591.965 563.527 591.965 549.304 C 591.965 535.081 611.788 531.988 636.061 531.988 C 660.335 531.988 679.869 535.081 679.869 549.304 Z " fill="rgb(0,0,0)"/></g><path d=" M 679.869 545.802 C 679.869 560.025 660.044 555.626 635.77 555.626 C 611.496 555.626 591.965 560.025 591.965 545.802 C 591.965 531.579 611.788 528.486 636.061 528.486 C 660.335 528.486 679.869 531.579 679.869 545.802 Z " fill="rgb(63,61,86)"/><path d=" M 675.82 520.269 L 676.822 524.402 C 676.833 524.448 676.831 524.497 676.817 524.542 L 672.271 538.746 C 672.234 538.862 672.121 538.936 672 538.924 C 671.879 538.912 671.782 538.817 671.769 538.697 L 671.14 533.163 C 671.136 533.126 671.14 533.089 671.151 533.054 L 675.323 520.25 C 675.359 520.14 675.463 520.067 675.579 520.072 C 675.694 520.076 675.792 520.157 675.82 520.269 L 675.82 520.269 Z " fill="rgb(47,46,65)"/><path d=" M 675.451 520.618 L 676.376 524.164 L 672.367 537.116 L 671.442 533.107 L 675.451 520.618 L 675.451 520.618 Z " fill="rgb(242,242,242)"/><path d=" M 655.252 539.892 C 655.406 540.354 671.288 539.737 671.442 539.583 C 671.576 539.39 671.69 539.183 671.781 538.967 C 671.926 538.658 672.059 538.35 672.059 538.35 L 671.442 533.357 L 655.715 532.799 C 655.715 532.799 655.321 537.03 655.241 538.967 C 655.214 539.274 655.218 539.584 655.252 539.892 Z " fill="rgb(47,46,65)"/><g opacity="0.1"><path d=" M 669.438 534.032 L 669.746 538.35 L 662.807 538.35 L 662.807 534.032 L 669.438 534.032 L 669.438 534.032 Z " fill="rgb(0,0,0)"/></g><g opacity="0.1"><path d=" M 660.495 535.42 L 660.536 535.412 L 660.34 537.27 L 656.486 537.27 L 656.486 535.42 L 660.495 535.42 L 660.495 535.42 Z " fill="rgb(0,0,0)"/></g><g opacity="0.1"><path d=" M 655.252 539.892 C 655.406 540.354 671.288 539.737 671.442 539.583 C 671.576 539.39 671.69 539.183 671.781 538.967 L 655.241 538.967 C 655.214 539.274 655.218 539.584 655.252 539.892 Z " fill="rgb(0,0,0)"/></g><path d=" M 630.736 523.702 L 635.053 523.702 L 645.692 519.539 C 645.692 519.539 653.248 516.455 652.631 522.314 C 652.014 528.173 650.935 536.037 650.935 536.037 C 650.935 536.037 647.543 534.495 645.692 534.958 C 643.842 535.42 645.076 525.552 645.076 525.552 C 645.076 525.552 629.965 532.799 628.577 531.874 C 627.19 530.949 626.881 524.473 626.881 524.473 L 630.736 523.702 Z " fill="rgb(47,46,65)"/><g opacity="0.1"><path d=" M 630.736 523.702 L 635.053 523.702 L 645.692 519.539 C 645.692 519.539 653.248 516.455 652.631 522.314 C 652.014 528.173 650.935 536.037 650.935 536.037 C 650.935 536.037 647.543 534.495 645.692 534.958 C 643.842 535.42 645.076 525.552 645.076 525.552 C 645.076 525.552 629.965 532.799 628.577 531.874 C 627.19 530.949 626.881 524.473 626.881 524.473 L 630.736 523.702 Z " fill="rgb(0,0,0)"/></g><path d=" M 637.538 510.182 L 642.763 517.688 L 654.944 527.865 C 654.944 527.865 666.2 530.486 664.658 532.336 C 664.658 532.336 653.71 530.486 653.71 530.486 C 653.71 530.486 639.679 520.31 639.216 519.539 C 638.754 518.768 633.666 511.521 633.666 511.521 L 637.538 510.182 Z " fill="rgb(160,97,106)"/><g opacity="0.1"><path d=" M 637.538 510.182 L 642.763 517.688 L 654.944 527.865 C 654.944 527.865 666.2 530.486 664.658 532.336 C 664.658 532.336 653.71 530.486 653.71 530.486 C 653.71 530.486 639.679 520.31 639.216 519.539 C 638.754 518.768 633.666 511.521 633.666 511.521 L 637.538 510.182 Z " fill="rgb(0,0,0)"/></g><circle vector-effect="non-scaling-stroke" cx="636.7493978599222" cy="495.02257324337256" r="6.938518482490281" fill="rgb(160,97,106)"/><path d=" M 636.287 501.19 C 636.287 501.19 633.974 505.199 633.511 507.358 C 633.511 507.358 626.573 503.04 626.573 503.04 L 625.725 500.805 C 625.725 500.805 631.815 497.952 631.353 495.639 C 630.89 493.326 636.287 501.19 636.287 501.19 Z " fill="rgb(160,97,106)"/><path d=" M 634.437 504.12 L 637.829 510.75 C 637.829 510.75 637.058 513.988 635.824 514.296 C 635.824 514.296 629.348 510.287 629.348 510.287 L 634.437 504.12 Z " fill="rgb(208,205,225)"/><path d=" M 637.52 513.217 L 643.842 521.543 L 658.953 532.799 C 658.953 532.799 669.9 535.112 667.433 536.808 C 667.433 536.808 657.873 535.266 657.873 535.266 C 657.873 535.266 642.609 527.094 639.371 523.702 C 639.371 523.702 630.119 514.605 630.119 514.605 L 637.52 513.217 Z " fill="rgb(160,97,106)"/><path d=" M 629.04 526.169 L 630.89 529.098 L 641.933 525.624 C 644.354 524.842 646.996 525.161 649.162 526.496 C 651.089 527.711 652.323 529.638 649.547 532.491 C 643.996 538.196 640.296 535.112 640.296 535.112 C 640.296 535.112 621.639 543.901 618.555 539.583 C 615.471 535.266 615.317 533.107 615.317 533.107 C 615.317 533.107 627.19 525.706 629.04 526.169 Z " fill="rgb(47,46,65)"/><path d=" M 652.168 536.345 C 652.168 536.345 657.102 539.583 651.243 541.125 C 651.243 541.125 641.067 540.508 641.067 540.508 C 641.067 540.508 635.978 540.508 635.978 537.887 C 635.978 537.887 637.675 534.958 637.675 534.958 L 642.917 535.729 C 642.917 535.729 649.239 534.032 652.168 536.345 Z " fill="rgb(208,205,225)"/><path d=" M 642.441 493.277 C 642.897 493.523 643.387 493.698 643.895 493.798 C 644.417 493.891 644.944 493.665 645.236 493.223 C 645.35 492.967 645.402 492.688 645.389 492.408 C 645.407 491.561 645.346 490.646 644.81 489.99 C 644.468 489.573 643.97 489.311 643.616 488.904 C 643.379 488.599 643.176 488.268 643.013 487.918 C 642.325 486.627 641.308 485.386 639.893 485.014 C 639.295 484.885 638.683 484.839 638.072 484.875 L 634.51 484.925 C 633.933 484.906 633.356 484.968 632.796 485.109 C 631.65 485.456 630.815 486.42 630.05 487.342 C 629.457 488.014 628.93 488.742 628.476 489.516 C 627.86 490.664 627.549 491.95 627.572 493.252 C 627.567 493.586 627.61 493.919 627.7 494.241 C 627.805 494.536 627.935 494.822 628.088 495.095 C 628.756 496.407 629.153 498.046 628.401 499.311 C 629.708 498.778 631.001 498.078 631.863 496.96 C 632.248 496.46 632.551 495.874 633.065 495.507 C 633.579 495.14 634.416 495.108 634.746 495.647 C 634.859 495.865 634.918 496.107 634.916 496.353 C 634.906 496.758 634.972 497.163 635.111 497.544 C 635.264 497.932 635.667 498.162 636.08 498.097 C 636.752 497.908 636.687 496.878 637.204 496.409 C 637.597 496.054 638.203 496.122 638.707 495.961 C 639.292 495.738 639.756 495.281 639.987 494.7 C 640.178 494.271 640.176 493.15 640.537 492.918 C 640.99 492.627 642.021 493.09 642.441 493.277 Z " fill="rgb(47,46,65)"/><path d=" M 625.174 500.073 C 625.486 499.99 625.815 499.991 626.127 500.076 C 627.116 500.341 629.335 501.045 629.811 502.115 C 630.428 503.503 632.586 505.662 632.586 505.662 C 632.586 505.662 635.516 508.591 634.899 510.596 C 634.282 512.6 631.97 514.913 631.97 514.913 C 631.97 514.913 632.586 524.473 629.503 526.94 C 626.419 529.407 625.185 527.711 625.185 530.024 C 625.185 532.336 615.625 539.583 613.775 535.112 C 613.775 535.112 614.7 526.786 614.392 523.856 C 614.088 520.969 614.533 502.954 625.174 500.073 Z " fill="rgb(208,205,225)"/><path d=" M 630.119 503.966 C 630.119 503.966 639.525 510.904 637.829 513.834 C 637.829 513.834 632.124 516.609 630.89 516.455 C 629.657 516.301 624.877 510.904 623.643 510.441 C 622.41 509.979 621.793 501.653 630.119 503.966 Z " fill="rgb(208,205,225)"/><path d=" M 604.108 510.183 C 602.645 510.677 601.32 511.833 601.021 513.347 C 600.882 514.049 600.967 514.779 600.85 515.485 C 600.579 517.123 599.293 518.374 598.108 519.535 C 596.922 520.697 595.698 522.047 595.611 523.705 C 595.516 525.52 596.833 527.22 596.605 529.024 C 596.34 531.119 594.128 532.476 593.581 534.516 C 593.215 535.878 593.663 537.345 594.399 538.547 C 595.803 540.839 598.201 542.395 600.756 543.229 C 603.31 544.063 606.03 544.238 608.717 544.266 C 611.989 544.301 615.541 544.02 617.999 541.86 C 619.403 540.616 620.285 538.887 620.468 537.02 C 620.701 534.518 619.657 531.934 620.378 529.527 C 620.831 528.013 621.967 526.629 621.798 525.058 C 621.632 523.521 620.289 522.432 619.369 521.19 C 618.509 520.031 617.987 518.662 617.476 517.312 L 615.726 512.694 C 615.382 511.787 615.005 510.832 614.238 510.236 C 612.804 509.121 610.496 509.34 608.819 509.57 C 607.262 509.783 605.605 509.678 604.108 510.183 Z " fill="rgb(47,46,65)"/><path d=" M 604.656 523.635 C 604.656 523.635 605.432 526.155 599.615 529.064 C 599.615 529.064 600.197 535.074 600.197 535.074 L 606.983 536.625 C 606.983 536.625 613.962 535.656 614.738 534.492 C 614.738 534.492 616.871 529.451 616.483 528.87 C 616.193 528.456 615.868 528.067 615.513 527.706 C 615.513 527.706 610.86 526.931 611.054 524.798 C 611.248 522.666 604.656 523.635 604.656 523.635 Z " fill="rgb(255,185,185)"/><g opacity="0.1"><path d=" M 604.656 523.635 C 604.656 523.635 605.432 526.155 599.615 529.064 C 599.615 529.064 600.197 535.074 600.197 535.074 L 606.983 536.625 C 606.983 536.625 613.962 535.656 614.738 534.492 C 614.738 534.492 616.871 529.451 616.483 528.87 C 616.193 528.456 615.868 528.067 615.513 527.706 C 615.513 527.706 610.86 526.931 611.054 524.798 C 611.248 522.666 604.656 523.635 604.656 523.635 Z " fill="rgb(0,0,0)"/></g><circle vector-effect="non-scaling-stroke" cx="608.4367548638129" cy="521.4053057336449" r="6.204233463035052" fill="rgb(255,185,185)"/><path d=" M 607.758 534.492 C 607.758 534.492 600.286 533.946 600.145 528.79 C 600.145 528.79 597.482 528.482 596.707 529.258 C 595.931 530.033 593.411 530.615 593.411 532.554 C 593.411 534.492 597.676 540.309 597.676 540.309 C 597.676 540.309 600.003 548.064 599.033 549.421 C 598.064 550.778 597.87 554.268 597.87 554.268 C 597.87 554.268 607.564 553.493 609.115 554.268 C 610.666 555.044 616.871 555.044 617.258 554.268 C 617.646 553.493 616.871 543.799 616.871 543.799 C 616.871 543.799 618.616 541.472 618.228 538.758 L 622.881 533.329 C 622.881 533.329 621.136 528.094 618.422 528.094 C 618.422 528.094 614.738 527.125 614.641 527.61 C 614.544 528.094 616.483 533.523 607.758 534.492 Z " fill="rgb(255,101,132)"/><path d=" M 590.309 551.554 C 590.309 551.554 592.054 554.268 596.513 554.85 C 596.513 554.85 601.748 553.881 601.36 553.493 C 601.36 553.493 596.319 551.36 596.319 551.36 L 593.605 549.227 L 590.309 551.554 Z " fill="rgb(255,185,185)"/><path d=" M 622.105 549.227 L 617.065 552.136 C 617.065 552.136 610.473 551.748 612.993 553.687 C 612.993 553.687 620.167 554.85 620.167 554.85 L 624.626 552.717 L 622.105 549.227 Z " fill="rgb(255,185,185)"/><path d=" M 596.901 554.268 C 596.901 554.268 592.248 565.707 597.87 567.452 C 597.87 567.452 619.003 568.81 622.493 566.483 C 622.493 566.483 626.953 561.054 626.371 560.085 C 626.371 560.085 621.912 556.401 619.197 556.207 C 616.483 556.013 596.901 554.268 596.901 554.268 Z " fill="rgb(47,46,65)"/><g opacity="0.05"><path d=" M 596.901 554.268 C 596.901 554.268 592.248 565.707 597.87 567.452 C 597.87 567.452 619.003 568.81 622.493 566.483 C 622.493 566.483 626.953 561.054 626.371 560.085 C 626.371 560.085 621.912 556.401 619.197 556.207 C 616.483 556.013 596.901 554.268 596.901 554.268 Z " fill="rgb(0,0,0)"/></g><path d=" M 618.865 554.979 C 618.865 554.979 635.289 549.034 635.096 556.207 C 635.096 556.207 624.626 565.32 624.626 565.32 L 621.524 565.707 L 604.462 566.289 C 604.462 566.289 605.044 563.187 603.687 562.799 C 603.687 562.799 608.146 561.636 608.34 561.442 C 608.534 561.248 619.585 557.37 620.361 557.177 C 621.136 556.983 623.463 555.432 625.208 555.626 C 625.208 555.626 627.146 554.074 629.279 554.462 L 623.269 554.85 L 618.865 554.979 Z " fill="rgb(47,46,65)"/><g opacity="0.1"><path d=" M 618.865 554.979 C 618.865 554.979 635.289 549.034 635.096 556.207 C 635.096 556.207 624.626 565.32 624.626 565.32 L 621.524 565.707 L 604.462 566.289 C 604.462 566.289 605.044 563.187 603.687 562.799 C 603.687 562.799 608.146 561.636 608.34 561.442 C 608.534 561.248 619.585 557.37 620.361 557.177 C 621.136 556.983 623.463 555.432 625.208 555.626 C 625.208 555.626 627.146 554.074 629.279 554.462 L 623.269 554.85 L 618.865 554.979 Z " fill="rgb(0,0,0)"/></g><path d=" M 615.963 555.942 L 618.034 560.667 L 630.636 556.207 L 631.606 553.687 L 628.31 553.105 L 621.683 554.268 L 618.809 555.044 L 615.963 555.942 L 615.963 555.942 Z " fill="rgb(47,46,65)"/><g opacity="0.1"><path d=" M 615.963 555.942 L 618.034 560.667 L 630.636 556.207 L 631.606 553.687 L 628.31 553.105 L 621.683 554.268 L 618.809 555.044 L 615.963 555.942 L 615.963 555.942 Z " fill="rgb(0,0,0)"/></g><path d=" M 589.145 561.636 C 589.145 561.636 592.829 566.289 597.095 567.452 C 597.095 567.452 603.687 567.065 603.687 567.065 L 602.329 561.636 L 601.748 558.146 L 599.227 556.401 L 594.186 554.074 L 588.176 552.136 C 588.176 552.136 585.656 551.748 585.656 552.136 C 585.656 552.136 587.982 558.34 587.982 558.34 L 589.145 561.636 Z " fill="rgb(47,46,65)"/><path d=" M 593.605 564.156 C 593.605 564.156 594.38 569.779 595.35 570.167 C 595.35 570.167 599.227 569.779 600.003 569.391 C 600.003 569.391 603.415 567.214 603.415 567.214 C 603.415 567.214 594.186 563.769 593.605 564.156 Z " fill="rgb(242,242,242)"/><path d=" M 611.248 564.738 L 614.932 565.32 L 614.544 569.779 L 609.406 568.531 L 611.248 564.738 L 611.248 564.738 Z " fill="rgb(255,185,185)"/><path d=" M 613.556 565.979 C 613.556 565.979 611.83 568.034 613.575 569.197 L 614.738 570.167 C 614.738 570.167 618.616 570.942 619.003 571.33 C 619.003 571.33 620.942 570.748 620.942 570.748 C 620.942 570.748 621.136 564.932 620.942 564.544 C 620.942 564.544 618.422 563.769 618.228 564.156 C 618.228 564.156 615.707 565.126 614.35 564.738 L 613.556 565.979 Z " fill="rgb(242,242,242)"/><path d=" M 598.064 555.626 C 598.064 555.626 584.492 547.676 582.36 550.585 C 582.36 550.585 577.9 557.564 584.105 560.666 C 584.105 560.666 609.697 570.167 609.697 570.167 C 609.697 570.167 612.605 565.707 612.605 564.544 C 612.605 564.544 602.329 559.891 600.585 559.503 C 598.84 559.115 591.86 554.656 590.89 554.268 C 589.921 553.881 588.564 552.717 588.564 552.717 L 598.064 555.626 Z " fill="rgb(47,46,65)"/><path d=" M 594.186 531.584 L 593.411 532.166 C 593.411 532.166 591.666 536.625 591.472 539.146 C 591.472 539.146 588.952 549.421 589.145 550.391 C 589.145 550.391 589.533 552.136 590.697 553.105 C 590.697 553.105 592.248 549.615 594.962 550.197 L 598.258 538.176 L 594.186 531.584 Z " fill="rgb(255,101,132)"/><path d=" M 621.33 531.584 L 622.881 533.329 C 622.881 533.329 623.85 535.656 623.85 536.237 C 623.85 536.237 625.789 545.35 625.983 545.738 C 625.983 545.738 626.953 550.972 625.983 552.136 C 625.983 552.136 623.269 554.074 623.269 554.074 C 623.269 554.074 624.432 550.003 620.748 549.809 L 621.136 548.258 L 617.646 536.625 L 621.33 531.584 Z " fill="rgb(255,101,132)"/><path d=" M 594.574 544.933 L 594.574 555.145 C 594.574 556.487 595.651 557.58 596.993 557.6 L 618.351 557.917 C 619.684 557.936 620.789 556.888 620.84 555.556 L 621.233 545.342 C 621.259 544.681 621.016 544.038 620.561 543.558 C 620.106 543.078 619.477 542.802 618.815 542.793 L 597.065 542.478 C 596.408 542.468 595.774 542.723 595.306 543.184 C 594.838 543.645 594.574 544.275 594.574 544.933 Z " fill="rgb(63,61,86)"/><ellipse vector-effect="non-scaling-stroke" cx="608.8006157587542" cy="517.6103874457071" rx="6.678245136186774" ry="3.5959785992217803" fill="rgb(47,46,65)"/><circle vector-effect="non-scaling-stroke" cx="607.6612256809339" cy="550.2937707141895" r="1.551058365758763" fill="rgb(242,242,242)"/></g></g></svg>